<svg xmlns="http://www.w3.org/2000/svg" width="323.863" height="323.863" viewBox="0 0 323.863 323.863"><path d="M227.433 219.776l96.43-91.616-60.143-63.307M194.47 122.104l1.83 5.71 24.02 74.987L249.775 77.01l2.246-9.58 2.126-9.062-.348-.08-85.45-20.014-.317 1.334 24.606 76.79M160.043 50.05l-3.2-9.995-.907-2.825-83.912 26.882 3.078 9.6 59.842 59.843 4.494 4.5 4.493 4.49 10.32 10.32 3.824 3.82 3.818 3.823 49.11 49.1.078-.257-23.482-73.27-1.826-5.715-1.824-5.71-20.696-64.598M62.303 68.558l-.15.15L0 130.86l109.85 109.852 4.494 4.492 4.493 4.493 1.912 1.914 1.375 1.378 5.745 5.748 1.22 1.218 4.52 4.52 3.83 3.828 4.288 4.288 4.002 4.002 4.003 3.997 6.035 6.043 19.296-19.3.433-.43.85-.848 4.26-4.26 2.162-2.163 2.947-2.953 2.125-2.126 1.35-1.35 11.443-11.44.586-.59 8.19-8.19 5.02-5.015 3.176-3.176.47-.475-.25-.243-2.013-2.015-2.305-2.31-4.32-4.313-51.21-51.217-3.817-3.815-3.817-3.818-7.852-7.852-4.492-4.493-4.493-4.493L78.698 84.95l-8.343-8.343-8.052-8.05zM162.728 216.18c8.87 0 16.063 7.192 16.063 16.062 0 8.875-7.192 16.063-16.062 16.063-8.872 0-16.065-7.193-16.065-16.063s7.192-16.062 16.065-16.062z"/></svg>